# Blender3D v245 OBJ File: chargegun.blend
# www.blender3d.org
mtllib chargegun.mtl
o Cube
v -0.132221 -0.444805 -0.688048
v -0.132410 -0.444805 0.687955
v -3.582129 -0.435746 0.618208
v -3.580652 -0.435746 -0.618953
v -0.132221 0.444805 -0.688048
v -0.132410 0.444805 0.687956
v -3.582129 0.435746 0.618209
v -3.580652 0.435746 -0.618953
v -0.306105 0.401723 -1.317662
v -0.306105 -0.401723 -1.317663
v -2.871722 -0.388804 -1.337847
v -2.871722 0.388804 -1.337847
v -0.306556 -0.401723 1.317502
v -0.306556 0.401723 1.317502
v -2.877091 0.388804 1.335320
v -2.877091 -0.388804 1.335320
v -1.533099 -0.238618 2.678958
v -1.533099 0.238618 2.678959
v -2.666004 0.244280 2.603771
v -2.666004 -0.244280 2.603771
v -1.532910 0.238618 -2.677566
v -1.532910 -0.238618 -2.677566
v -2.663875 -0.244280 -2.603643
v -2.663875 0.244280 -2.603643
v -3.255768 0.087395 -3.695850
v -3.255768 -0.087395 -3.695850
v -3.506544 -0.087236 -3.693844
v -3.506544 0.087236 -3.693844
v -3.255786 -0.087395 3.700486
v -3.255786 0.087395 3.700486
v -3.506668 0.087236 3.698413
v -3.506668 -0.087235 3.698413
v -5.523464 0.164190 0.171377
v -5.523361 0.164190 -0.171435
v -5.523361 -0.164191 -0.171435
v -5.523464 -0.164191 0.171377
v -3.656839 0.135395 -1.765437
v -3.724624 0.108807 -2.085880
v -3.724624 -0.108807 -2.085880
v -3.656839 -0.135395 -1.765437
v -3.674143 -0.135395 1.757184
v -3.734002 -0.108807 2.081330
v -3.734002 0.108807 2.081330
v -3.674143 0.135395 1.757184
v -0.054140 -0.462902 -0.000024
v -1.070254 -0.619198 -0.659823
v 0.066407 -0.000000 -0.708098
v -1.070897 -0.619198 0.659494
v 0.066331 0.000000 0.708064
v -2.711777 -0.556439 -0.000159
v -4.373508 -0.000000 0.732227
v -4.371244 -0.000000 -0.733311
v -0.054140 0.462902 -0.000024
v -1.070254 0.619198 -0.659823
v -1.070897 0.619198 0.659495
v -2.711777 0.556439 -0.000158
v -0.144673 -0.000000 -1.327035
v -1.033246 -0.557734 -1.314027
v -3.499162 -0.000000 -1.227616
v -1.033246 0.557734 -1.314026
v -0.144850 0.000000 1.327005
v -1.034954 0.557734 1.313262
v -3.506021 0.000000 1.224367
v -1.034954 -0.557734 1.313262
v -0.725763 0.333512 1.965869
v -1.449508 0.000000 2.682198
v -0.725763 -0.333511 1.965869
v -2.162606 0.404696 1.946704
v -1.874163 0.334647 2.665953
v -2.162606 -0.404695 1.946703
v -3.027964 0.000000 2.750268
v -1.874162 -0.334647 2.665953
v -0.725372 -0.333511 -1.965701
v -1.449435 -0.000000 -2.680740
v -0.725372 0.333511 -1.965701
v -2.158275 -0.404696 -1.948528
v -1.873448 -0.334647 -2.664870
v -2.158275 0.404696 -1.948528
v -3.026203 -0.000000 -2.749790
v -1.873448 0.334647 -2.664870
v -2.612600 -0.148357 -3.359237
v -3.315071 -0.000000 -3.729160
v -2.612600 0.148357 -3.359236
v -3.246655 -0.148756 -3.347060
v -3.405964 -0.098814 -3.728025
v -3.246654 0.148756 -3.347060
v -3.580965 -0.000000 -3.732500
v -3.405964 0.098814 -3.728024
v -2.612658 0.148357 3.362823
v -3.315081 0.000000 3.733882
v -2.612658 -0.148357 3.362823
v -3.247149 0.148756 3.350365
v -3.406012 0.098814 3.732723
v -3.247149 -0.148756 3.350365
v -3.581060 0.000000 3.737169
v -3.406012 -0.098814 3.732723
v -4.806263 0.275931 -0.312665
v -5.534242 0.183813 -0.000017
v -4.806652 0.275931 0.312457
v -4.806262 -0.275931 -0.312665
v -5.705146 -0.000000 -0.190134
v -5.705266 -0.000000 0.190072
v -4.806651 -0.275931 0.312457
v -5.534243 -0.183813 -0.000017
v -3.296548 0.173789 -2.238348
v -3.682939 0.137046 -1.924150
v -3.378050 0.231605 -1.631371
v -3.296548 -0.173789 -2.238348
v -3.837147 -0.000000 -2.103781
v -3.378051 -0.231605 -1.631372
v -3.682939 -0.137046 -1.924150
v -3.744614 -0.000000 -1.748883
v -3.302419 -0.173789 2.235709
v -3.696827 -0.137046 1.917470
v -3.390903 -0.231605 1.625261
v -3.302420 0.173789 2.235709
v -3.846413 0.000000 2.099269
v -3.390903 0.231605 1.625261
v -3.696827 0.137046 1.917469
v -3.763124 0.000000 1.740061
v 0.123922 -0.000000 -0.000009
v -0.612492 0.000000 1.968445
v -1.163530 0.477732 1.962674
v -1.163530 -0.477732 1.962673
v -0.612339 -0.000000 -1.968160
v -1.162068 -0.477732 -1.963039
v -1.162068 0.477732 -1.963039
v -2.576394 -0.000000 -3.365258
v -2.824443 -0.202691 -3.360206
v -3.413368 -0.000000 -3.380731
v -2.824443 0.202691 -3.360206
v -3.561427 -0.000000 -3.810694
v -2.576417 0.000000 3.368874
v -2.824644 0.202691 3.363715
v -3.413816 0.000000 3.384090
v -2.824644 -0.202691 3.363715
v -3.561451 0.000000 3.815616
v -4.294046 0.366079 -0.000059
v -5.079321 -0.000000 -0.405384
v -5.079901 -0.000000 0.405103
v -4.294046 -0.366079 -0.000059
v -5.956377 -0.000000 -0.000012
v -3.028911 0.269643 -1.928506
v -3.460653 -0.000000 -2.334000
v -3.028911 -0.269643 -1.928506
v -3.552203 -0.000000 -1.545177
v -3.909723 -0.000000 -1.924533
v -3.038466 -0.269643 1.923970
v -3.465476 0.000000 2.331897
v -3.038466 0.269643 1.923970
v -3.566484 0.000000 1.538396
v -3.924861 0.000000 1.917245
v -0.805779 0.662153 -0.000081
v -0.805779 -0.662153 -0.000081
vn 0.978545 0.000000 -0.206000
vn 0.652852 0.738853 -0.166906
vn 0.639576 0.768700 0.000061
vn 1.000000 0.000000 0.000092
vn 0.652852 -0.738853 -0.166906
vn 0.639576 -0.768700 0.000061
vn 0.652638 0.739006 0.167089
vn 0.978484 0.000000 0.206275
vn 0.652638 -0.739006 0.167089
vn 0.617786 -0.711661 -0.334422
vn 0.899014 0.000000 -0.437910
vn 0.617786 0.711661 -0.334422
vn -0.393170 0.907010 -0.150609
vn -0.970824 0.000000 -0.239692
vn -0.486343 0.000000 -0.873745
vn -0.246162 0.882504 -0.400678
vn -0.393170 -0.907010 -0.150609
vn -0.246162 -0.882504 -0.400678
vn 0.617450 0.711966 0.334330
vn 0.898953 0.000000 0.438002
vn 0.617450 -0.711966 0.334330
vn -0.392376 -0.908200 0.145573
vn -0.973296 0.000000 0.229408
vn -0.486679 0.000000 0.873562
vn -0.246254 -0.882534 0.400555
vn -0.392376 0.908200 0.145573
vn -0.246254 0.882534 0.400555
vn 0.538194 0.651357 0.534806
vn 0.455702 0.564379 0.688284
vn 0.591601 0.000000 0.806207
vn 0.745232 0.000000 0.666799
vn 0.455702 -0.564379 0.688284
vn 0.538194 -0.651357 0.534806
vn -0.126988 0.984222 0.123081
vn -0.437483 0.898740 0.028413
vn 0.060030 0.962767 0.263466
vn 0.111179 0.963195 0.244606
vn 0.087222 0.986663 0.137181
vn 0.060030 -0.962767 0.263466
vn 0.111179 -0.963195 0.244606
vn 0.087222 -0.986663 0.137181
vn -0.437483 -0.898740 0.028413
vn -0.126988 -0.984222 0.123081
vn 0.538347 -0.650716 -0.535478
vn 0.455336 -0.563250 -0.689444
vn 0.590686 0.000000 -0.806879
vn 0.744896 0.000000 -0.667165
vn 0.455336 0.563250 -0.689444
vn 0.538347 0.650716 -0.535478
vn -0.127567 -0.984130 -0.123173
vn -0.437544 -0.898770 -0.027039
vn 0.060274 -0.962493 -0.264412
vn 0.111667 -0.962951 -0.245369
vn 0.087558 -0.986633 -0.137333
vn 0.060274 0.962493 -0.264412
vn 0.111667 0.962951 -0.245369
vn 0.087558 0.986633 -0.137333
vn -0.437544 0.898770 -0.027039
vn -0.127567 0.984130 -0.123173
vn 0.381787 -0.533036 -0.755028
vn 0.318186 -0.494827 -0.808618
vn 0.346233 0.000000 -0.938108
vn 0.491806 0.000000 -0.870693
vn 0.318186 0.494827 -0.808618
vn 0.381787 0.533036 -0.755028
vn -0.440748 -0.877529 0.188818
vn -0.498520 -0.866848 0.004089
vn -0.020081 -0.785089 -0.619037
vn 0.049074 -0.953856 -0.296152
vn -0.440748 0.877529 0.188818
vn -0.498520 0.866848 0.004089
vn -0.995514 0.000000 -0.094485
vn -0.863338 0.000000 0.504562
vn -0.991119 0.000000 -0.132878
vn -0.020081 0.785089 -0.619037
vn 0.049074 0.953856 -0.296152
vn -0.311350 0.000000 -0.950285
vn 0.382458 0.534043 0.753960
vn 0.318766 0.495743 0.807825
vn 0.347056 0.000000 0.937834
vn 0.492996 0.000000 0.869991
vn 0.318766 -0.495743 0.807825
vn 0.382458 -0.534043 0.753960
vn -0.440962 0.877682 -0.187506
vn -0.498428 0.866909 -0.003510
vn -0.019837 0.785485 0.618549
vn 0.049074 0.954131 0.295267
vn -0.440962 -0.877682 -0.187506
vn -0.498428 -0.866909 -0.003510
vn -0.995453 0.000000 0.095187
vn -0.864834 0.000000 -0.501999
vn -0.990844 0.000000 0.134983
vn -0.019837 -0.785485 0.618549
vn 0.049074 -0.954131 0.295267
vn -0.311228 0.000000 0.950316
vn -0.090854 0.995849 -0.000031
vn -0.236091 0.837062 -0.493515
vn -0.143101 0.989685 -0.000061
vn -0.236061 0.837092 0.493454
vn -0.301706 0.819544 -0.487106
vn -0.379681 0.925108 -0.000092
vn -0.301706 0.819544 0.487106
vn -0.236091 -0.837062 -0.493515
vn -0.338786 0.000000 -0.940855
vn -0.301706 -0.819544 -0.487136
vn -0.563585 0.000000 -0.826044
vn -0.338664 0.000000 0.940886
vn -0.236061 -0.837092 0.493454
vn -0.563646 0.000000 0.825983
vn -0.301706 -0.819544 0.487106
vn -0.090854 -0.995849 -0.000031
vn -0.143101 -0.989685 -0.000061
vn -0.379681 -0.925108 -0.000092
vn -1.000000 0.000000 -0.000153
vn -0.314066 0.855281 -0.412091
vn -0.402387 0.844600 -0.353069
vn -0.475936 0.877743 0.054903
vn -0.198096 0.973388 -0.115024
vn -0.467238 0.838771 0.279458
vn -0.438704 0.864193 0.246284
vn -0.314066 -0.855281 -0.412091
vn -0.402387 -0.844600 -0.353069
vn -0.798853 0.000000 -0.601489
vn -0.566393 0.000000 -0.824122
vn -0.438704 -0.864193 0.246284
vn -0.467238 -0.838771 0.279458
vn -0.475936 -0.877743 0.054903
vn -0.198096 -0.973388 -0.115024
vn -0.781182 0.000000 0.624256
vn -0.788842 0.000000 0.614551
vn -0.985931 0.000000 0.167089
vn -0.313822 -0.854976 0.412915
vn -0.399915 -0.843745 0.357952
vn -0.474532 -0.879116 -0.043641
vn -0.197180 -0.973479 0.115909
vn -0.465285 -0.839198 -0.281442
vn -0.433119 -0.865505 -0.251534
vn -0.313822 0.854976 0.412915
vn -0.399915 0.843745 0.357952
vn -0.791314 0.000000 0.611377
vn -0.566271 0.000000 0.824213
vn -0.433119 0.865505 -0.251534
vn -0.465285 0.839198 -0.281442
vn -0.474532 0.879116 -0.043641
vn -0.197180 0.973479 0.115909
vn -0.782617 0.000000 -0.622456
vn -0.777673 0.000000 -0.628651
vn -0.989502 0.000000 -0.144444
vn 0.058107 0.993469 -0.097964
vn 0.083956 0.996460 0.000000
vn 0.058077 0.993469 0.097995
vn 0.058077 -0.993469 0.097995
vn 0.083956 -0.996460 0.000000
vn 0.058107 -0.993469 -0.097964
usemtl Material
s 1
f 47//1 5//2 53//3 121//4
f 1//5 47//1 121//4 45//6
f 121//4 53//3 6//7 49//8
f 45//6 121//4 49//8 2//9
f 47//1 1//5 10//10 57//11
f 57//11 9//12 5//2 47//1
f 12//13 59//14 52//15 8//16
f 59//14 11//17 4//18 52//15
f 14//19 61//20 49//8 6//7
f 61//20 13//21 2//9 49//8
f 16//22 63//23 51//24 3//25
f 63//23 15//26 7//27 51//24
f 65//28 18//29 66//30 122//31
f 14//19 65//28 122//31 61//20
f 122//31 66//30 17//32 67//33
f 61//20 122//31 67//33 13//21
f 68//34 19//35 69//36 123//37
f 15//26 68//34 123//37 62//38
f 123//37 69//36 18//29 65//28
f 62//38 123//37 65//28 14//19
f 67//33 17//32 72//39 124//40
f 13//21 67//33 124//40 64//41
f 124//40 72//39 20//42 70//43
f 64//41 124//40 70//43 16//22
f 73//44 22//45 74//46 125//47
f 10//10 73//44 125//47 57//11
f 125//47 74//46 21//48 75//49
f 57//11 125//47 75//49 9//12
f 76//50 23//51 77//52 126//53
f 11//17 76//50 126//53 58//54
f 126//53 77//52 22//45 73//44
f 58//54 126//53 73//44 10//10
f 75//49 21//48 80//55 127//56
f 9//12 75//49 127//56 60//57
f 127//56 80//55 24//58 78//59
f 60//57 127//56 78//59 12//13
f 81//60 26//61 82//62 128//63
f 22//45 81//60 128//63 74//46
f 128//63 82//62 25//64 83//65
f 74//46 128//63 83//65 21//48
f 84//66 27//67 85//68 129//69
f 23//51 84//66 129//69 77//52
f 129//69 85//68 26//61 81//60
f 77//52 129//69 81//60 22//45
f 86//70 28//71 87//72 130//73
f 24//58 86//70 130//73 79//74
f 130//73 87//72 27//67 84//66
f 79//74 130//73 84//66 23//51
f 83//65 25//64 88//75 131//76
f 21//48 83//65 131//76 80//55
f 131//76 88//75 28//71 86//70
f 80//55 131//76 86//70 24//58
f 82//62 26//61 85//68 132//77
f 25//64 82//62 132//77 88//75
f 132//77 85//68 27//67 87//72
f 88//75 132//77 87//72 28//71
f 89//78 30//79 90//80 133//81
f 18//29 89//78 133//81 66//30
f 133//81 90//80 29//82 91//83
f 66//30 133//81 91//83 17//32
f 92//84 31//85 93//86 134//87
f 19//35 92//84 134//87 69//36
f 134//87 93//86 30//79 89//78
f 69//36 134//87 89//78 18//29
f 94//88 32//89 95//90 135//91
f 20//42 94//88 135//91 71//92
f 135//91 95//90 31//85 92//84
f 71//92 135//91 92//84 19//35
f 91//83 29//82 96//93 136//94
f 17//32 91//83 136//94 72//39
f 136//94 96//93 32//89 94//88
f 72//39 136//94 94//88 20//42
f 90//80 30//79 93//86 137//95
f 29//82 90//80 137//95 96//93
f 137//95 93//86 31//85 95//90
f 96//93 137//95 95//90 32//89
f 56//96 8//16 97//97 138//98
f 7//27 56//96 138//98 99//99
f 138//98 97//97 34//100 98//101
f 99//99 138//98 98//101 33//102
f 52//15 4//18 100//103 139//104
f 8//16 52//15 139//104 97//97
f 139//104 100//103 35//105 101//106
f 97//97 139//104 101//106 34//100
f 51//24 7//27 99//99 140//107
f 3//25 51//24 140//107 103//108
f 140//107 99//99 33//102 102//109
f 103//108 140//107 102//109 36//110
f 50//111 3//25 103//108 141//112
f 4//18 50//111 141//112 100//103
f 141//112 103//108 36//110 104//113
f 100//103 141//112 104//113 35//105
f 102//109 33//102 98//101 142//114
f 36//110 102//109 142//114 104//113
f 142//114 98//101 34//100 101//106
f 104//113 142//114 101//106 35//105
f 105//115 38//116 106//117 143//118
f 24//58 105//115 143//118 78//59
f 143//118 106//117 37//119 107//120
f 78//59 143//118 107//120 12//13
f 108//121 39//122 109//123 144//124
f 23//51 108//121 144//124 79//74
f 144//124 109//123 38//116 105//115
f 79//74 144//124 105//115 24//58
f 110//125 40//126 111//127 145//128
f 11//17 110//125 145//128 76//50
f 145//128 111//127 39//122 108//121
f 76//50 145//128 108//121 23//51
f 107//120 37//119 112//129 146//130
f 12//13 107//120 146//130 59//14
f 146//130 112//129 40//126 110//125
f 59//14 146//130 110//125 11//17
f 106//117 38//116 109//123 147//131
f 37//119 106//117 147//131 112//129
f 147//131 109//123 39//122 111//127
f 112//129 147//131 111//127 40//126
f 113//132 42//133 114//134 148//135
f 20//42 113//132 148//135 70//43
f 148//135 114//134 41//136 115//137
f 70//43 148//135 115//137 16//22
f 116//138 43//139 117//140 149//141
f 19//35 116//138 149//141 71//92
f 149//141 117//140 42//133 113//132
f 71//92 149//141 113//132 20//42
f 118//142 44//143 119//144 150//145
f 15//26 118//142 150//145 68//34
f 150//145 119//144 43//139 116//138
f 68//34 150//145 116//138 19//35
f 115//137 41//136 120//146 151//147
f 16//22 115//137 151//147 63//23
f 151//147 120//146 44//143 118//142
f 63//23 151//147 118//142 15//26
f 114//134 42//133 117//140 152//148
f 41//136 114//134 152//148 120//146
f 152//148 117//140 43//139 119//144
f 120//146 152//148 119//144 44//143
f 54//149 8//16 56//96 153//150
f 5//2 54//149 153//150 53//3
f 153//150 56//96 7//27 55//151
f 53//3 153//150 55//151 6//7
f 45//6 2//9 48//152 154//153
f 1//5 45//6 154//153 46//154
f 154//153 48//152 3//25 50//111
f 46//154 154//153 50//111 4//18
f 7//27 15//26 62//38 55//151
f 6//7 55//151 62//38 14//19
f 8//16 54//149 60//57 12//13
f 5//2 9//12 60//57 54//149
f 3//25 48//152 64//41 16//22
f 2//9 13//21 64//41 48//152
f 1//5 46//154 58//54 10//10
f 4//18 11//17 58//54 46//154
