# Blender3D v245 OBJ File: tiro.blend
# www.blender3d.org
mtllib missile.mtl
o Cube
v 0.123483 -0.133573 -0.712508
v 0.022898 -0.024769 0.712508
v -0.022898 -0.024769 0.712508
v -0.123483 -0.133573 -0.712508
v 0.123483 0.133573 -0.712508
v 0.022898 0.024769 0.712508
v -0.022898 0.024769 0.712508
v -0.123483 0.133573 -0.712508
v 0.079614 -0.086119 0.000000
v 0.000000 -0.148749 -0.775038
v 0.137513 -0.000000 -0.775038
v -0.000000 -0.023489 0.775038
v 0.021715 0.000000 0.775038
v -0.079614 -0.086119 -0.000000
v -0.021715 0.000000 0.775038
v -0.137513 -0.000000 -0.775038
v 0.079614 0.086119 0.000000
v 0.000000 0.148749 -0.775038
v -0.000000 0.023489 0.775038
v -0.079614 0.086119 0.000000
v -0.000000 -0.106137 -0.000000
v -0.000000 0.106137 0.000000
v 0.098120 0.000000 0.000000
v -0.000000 0.000000 0.955192
v -0.098120 -0.000000 -0.000000
v 0.000000 -0.000000 -0.955191
v 0.110866 -0.119925 -0.429508
v 0.045677 -0.049409 0.429508
v 0.076715 -0.145612 -0.761972
v -0.076715 -0.145612 -0.761972
v 0.134613 -0.082983 -0.761972
v 0.134613 0.082983 -0.761971
v 0.011525 -0.023722 0.761972
v -0.011525 -0.023722 0.761972
v 0.021930 -0.012467 0.761972
v 0.021930 0.012467 0.761972
v -0.045677 -0.049409 0.429508
v -0.110866 -0.119925 -0.429508
v -0.021930 -0.012467 0.761972
v -0.021930 0.012467 0.761972
v -0.134613 -0.082983 -0.761972
v -0.134613 0.082983 -0.761972
v 0.110867 0.119925 -0.429508
v 0.045677 0.049409 0.429508
v 0.076715 0.145612 -0.761971
v -0.076715 0.145612 -0.761972
v 0.011525 0.023722 0.761972
v -0.011525 0.023722 0.761972
v -0.045677 0.049409 0.429508
v -0.110867 0.119925 -0.429508
v -0.000000 -0.059806 0.441442
v 0.045346 -0.102393 -0.000000
v -0.000000 -0.144980 -0.441442
v -0.045346 -0.102393 -0.000000
v -0.045346 0.102393 0.000000
v -0.000000 0.144980 -0.441442
v 0.045346 0.102393 0.000000
v -0.000000 0.059806 0.441442
v 0.094659 0.049051 0.000000
v 0.134029 -0.000000 -0.441442
v 0.094659 -0.049051 0.000000
v 0.055289 0.000000 0.441442
v -0.000000 0.006464 0.921499
v 0.005976 0.000000 0.921499
v -0.000000 -0.006464 0.921499
v -0.005976 0.000000 0.921499
v -0.094659 0.049051 -0.000000
v -0.055289 0.000000 0.441442
v -0.094659 -0.049051 -0.000000
v -0.134029 -0.000000 -0.441442
v 0.000000 -0.091638 -0.921499
v 0.084716 -0.000000 -0.921499
v 0.000000 0.091638 -0.921499
v -0.084716 -0.000000 -0.921499
v 0.025667 -0.057924 0.438358
v 0.064392 -0.140333 -0.438358
v -0.025667 -0.057924 0.438358
v -0.064392 -0.140333 -0.438359
v -0.064392 0.140333 -0.438358
v 0.064392 0.140333 -0.438358
v -0.025667 0.057924 0.438359
v 0.025667 0.057924 0.438359
v 0.129732 0.069653 -0.438358
v 0.129732 -0.069653 -0.438358
v 0.053548 0.027764 0.438359
v 0.053548 -0.027764 0.438359
v 0.006937 0.007504 0.892115
v 0.006937 -0.007504 0.892115
v -0.006937 0.007504 0.892115
v -0.006937 -0.007504 0.892115
v -0.053548 0.027764 0.438358
v -0.053548 -0.027764 0.438358
v -0.129732 0.069653 -0.438358
v -0.129732 -0.069653 -0.438359
v 0.083121 -0.089913 -0.892115
v 0.083121 0.089913 -0.892115
v -0.083121 -0.089913 -0.892115
v -0.083121 0.089913 -0.892115
vn 0.423755 -0.898705 0.112966
vn 0.427720 -0.897151 0.110343
vn 0.090899 -0.989967 0.108179
vn 0.083050 -0.991089 0.104143
vn 0.402630 -0.910040 0.098567
vn 0.304705 -0.951511 0.042216
vn 0.073478 -0.993382 0.088286
vn 0.053388 -0.998465 0.014748
vn -0.090899 -0.989967 0.108179
vn -0.083050 -0.991089 0.104143
vn -0.423755 -0.898705 0.112966
vn -0.427720 -0.897151 0.110343
vn -0.073478 -0.993381 0.088286
vn -0.053389 -0.998465 0.014748
vn -0.402630 -0.910040 0.098567
vn -0.304705 -0.951511 0.042216
vn -0.304705 0.951511 0.042216
vn -0.053389 0.998465 0.014748
vn -0.402630 0.910040 0.098567
vn -0.073478 0.993381 0.088286
vn 0.053388 0.998465 0.014748
vn 0.304705 0.951511 0.042216
vn 0.073478 0.993382 0.088286
vn 0.402630 0.910040 0.098567
vn -0.427720 0.897151 0.110343
vn -0.083050 0.991089 0.104143
vn -0.423756 0.898705 0.112966
vn -0.090898 0.989967 0.108179
vn 0.083049 0.991089 0.104143
vn 0.427720 0.897151 0.110343
vn 0.090898 0.989967 0.108179
vn 0.423756 0.898704 0.112966
vn 0.963776 0.263767 0.039531
vn 0.998865 0.045645 0.013639
vn 0.931292 0.352136 0.093250
vn 0.994670 0.062877 0.081723
vn 0.998865 -0.045646 0.013639
vn 0.963776 -0.263767 0.039531
vn 0.994670 -0.062878 0.081723
vn 0.931292 -0.352136 0.093250
vn 0.920987 0.375255 0.104718
vn 0.992796 0.071099 0.096443
vn 0.922181 0.371615 0.107161
vn 0.991917 0.077837 0.100205
vn 0.992796 -0.071099 0.096443
vn 0.920987 -0.375255 0.104718
vn 0.991917 -0.077837 0.100205
vn 0.922181 -0.371616 0.107161
vn 0.728122 0.673121 0.129410
vn 0.977271 0.180110 0.111811
vn 0.209275 0.970453 0.120103
vn 0.724901 0.670144 0.159450
vn 0.977271 -0.180110 0.111811
vn 0.728120 -0.673123 0.129410
vn 0.724901 -0.670144 0.159451
vn 0.209277 -0.970453 0.120103
vn -0.209275 0.970453 0.120103
vn -0.724901 0.670144 0.159450
vn -0.728122 0.673121 0.129410
vn -0.977271 0.180110 0.111811
vn -0.724901 -0.670144 0.159450
vn -0.209277 -0.970453 0.120103
vn -0.977271 -0.180111 0.111811
vn -0.728120 -0.673123 0.129410
vn -0.922182 0.371615 0.107161
vn -0.991918 0.077837 0.100205
vn -0.920987 0.375255 0.104718
vn -0.992796 0.071099 0.096442
vn -0.991917 -0.077837 0.100205
vn -0.922181 -0.371616 0.107161
vn -0.992796 -0.071099 0.096442
vn -0.920987 -0.375255 0.104718
vn -0.931292 0.352136 0.093249
vn -0.994670 0.062878 0.081723
vn -0.963776 0.263767 0.039530
vn -0.998865 0.045646 0.013639
vn -0.994670 -0.062878 0.081723
vn -0.931292 -0.352136 0.093250
vn -0.998865 -0.045646 0.013639
vn -0.963776 -0.263767 0.039530
vn 0.697303 -0.644630 -0.313401
vn 0.930960 -0.109702 -0.348252
vn 0.126783 -0.919504 -0.372073
vn 0.337084 -0.311621 -0.888407
vn 0.930959 0.109703 -0.348253
vn 0.697303 0.644630 -0.313401
vn 0.337084 0.311622 -0.888406
vn 0.126783 0.919504 -0.372073
vn -0.126782 -0.919504 -0.372073
vn -0.337082 -0.311620 -0.888408
vn -0.697303 -0.644630 -0.313401
vn -0.930959 -0.109702 -0.348253
vn -0.337083 0.311622 -0.888407
vn -0.126782 0.919504 -0.372073
vn -0.930959 0.109703 -0.348253
vn -0.697303 0.644631 -0.313401
usemtl Material
s off
f 28//1 2//1 33//1 75//1
f 9//2 28//2 75//2 52//2
f 75//3 33//3 12//3 51//3
f 52//4 75//4 51//4 21//4
f 27//5 9//5 52//5 76//5
f 1//6 27//6 76//6 29//6
f 76//7 52//7 21//7 53//7
f 29//8 76//8 53//8 10//8
f 51//9 12//9 34//9 77//9
f 21//10 51//10 77//10 54//10
f 77//11 34//11 3//11 37//11
f 54//12 77//12 37//12 14//12
f 53//13 21//13 54//13 78//13
f 10//14 53//14 78//14 30//14
f 78//15 54//15 14//15 38//15
f 30//16 78//16 38//16 4//16
f 46//17 8//17 50//17 79//17
f 18//18 46//18 79//18 56//18
f 79//19 50//19 20//19 55//19
f 56//20 79//20 55//20 22//20
f 45//21 18//21 56//21 80//21
f 5//22 45//22 80//22 43//22
f 80//23 56//23 22//23 57//23
f 43//24 80//24 57//24 17//24
f 55//25 20//25 49//25 81//25
f 22//26 55//26 81//26 58//26
f 81//27 49//27 7//27 48//27
f 58//28 81//28 48//28 19//28
f 57//29 22//29 58//29 82//29
f 17//30 57//30 82//30 44//30
f 82//31 58//31 19//31 47//31
f 44//32 82//32 47//32 6//32
f 32//33 5//33 43//33 83//33
f 11//34 32//34 83//34 60//34
f 83//35 43//35 17//35 59//35
f 60//36 83//36 59//36 23//36
f 31//37 11//37 60//37 84//37
f 1//38 31//38 84//38 27//38
f 84//39 60//39 23//39 61//39
f 27//40 84//40 61//40 9//40
f 59//41 17//41 44//41 85//41
f 23//42 59//42 85//42 62//42
f 85//43 44//43 6//43 36//43
f 62//44 85//44 36//44 13//44
f 61//45 23//45 62//45 86//45
f 9//46 61//46 86//46 28//46
f 86//47 62//47 13//47 35//47
f 28//48 86//48 35//48 2//48
f 36//49 6//49 47//49 87//49
f 13//50 36//50 87//50 64//50
f 87//51 47//51 19//51 63//51
f 64//52 87//52 63//52 24//52
f 35//53 13//53 64//53 88//53
f 2//54 35//54 88//54 33//54
f 88//55 64//55 24//55 65//55
f 33//56 88//56 65//56 12//56
f 63//57 19//57 48//57 89//57
f 24//58 63//58 89//58 66//58
f 89//59 48//59 7//59 40//59
f 66//60 89//60 40//60 15//60
f 65//61 24//61 66//61 90//61
f 12//62 65//62 90//62 34//62
f 90//63 66//63 15//63 39//63
f 34//64 90//64 39//64 3//64
f 40//65 7//65 49//65 91//65
f 15//66 40//66 91//66 68//66
f 91//67 49//67 20//67 67//67
f 68//68 91//68 67//68 25//68
f 39//69 15//69 68//69 92//69
f 3//70 39//70 92//70 37//70
f 92//71 68//71 25//71 69//71
f 37//72 92//72 69//72 14//72
f 67//73 20//73 50//73 93//73
f 25//74 67//74 93//74 70//74
f 93//75 50//75 8//75 42//75
f 70//76 93//76 42//76 16//76
f 69//77 25//77 70//77 94//77
f 14//78 69//78 94//78 38//78
f 94//79 70//79 16//79 41//79
f 38//80 94//80 41//80 4//80
f 31//81 1//81 29//81 95//81
f 11//82 31//82 95//82 72//82
f 95//83 29//83 10//83 71//83
f 72//84 95//84 71//84 26//84
f 32//85 11//85 72//85 96//85
f 5//86 32//86 96//86 45//86
f 96//87 72//87 26//87 73//87
f 45//88 96//88 73//88 18//88
f 71//89 10//89 30//89 97//89
f 26//90 71//90 97//90 74//90
f 97//91 30//91 4//91 41//91
f 74//92 97//92 41//92 16//92
f 73//93 26//93 74//93 98//93
f 18//94 73//94 98//94 46//94
f 98//95 74//95 16//95 42//95
f 46//96 98//96 42//96 8//96
